<svg t="1749653022770" class="icon" viewBox="0 0 1024 1024" version="1.1" xmlns="http://www.w3.org/2000/svg" p-id="7460" xmlns:xlink="http://www.w3.org/1999/xlink" width="200" height="200">
    <path d="M768 0a256 256 0 0 1 255.701333 243.2L1024 256v512a256 256 0 0 1-243.2 255.701333L768 1024H256a256 256 0 0 1-255.701333-243.2L0 768V256A256 256 0 0 1 243.2 0.298667L256 0h512z m0 96H256a160 160 0 0 0-159.658667 149.461333L96 256v512a160 160 0 0 0 149.461333 159.658667L256 928h512a160 160 0 0 0 159.658667-149.461333L928 768V256a160 160 0 0 0-149.461333-159.658667L768 96zM384 704a64 64 0 1 0-128 0 64 64 0 0 0 128 0z m320-64a64 64 0 1 1 0 128 64 64 0 0 1 0-128z m-128-128a64 64 0 1 0-128 0 64 64 0 0 0 128 0z m128-256a64 64 0 1 1 0 128 64 64 0 0 1 0-128zM384 320a64 64 0 1 0-128 0 64 64 0 0 0 128 0z" fill="#2c2c2c" p-id="7461"></path>
</svg>